<svg width="37" height="42" viewBox="0 0 37 42" fill="none" xmlns="http://www.w3.org/2000/svg">
<path fill-rule="evenodd" clip-rule="evenodd" d="M8 12.1513C8 6.2833 12.701 1.52632 18.5 1.52632C24.299 1.52632 29 6.2833 29 12.1513V18.5263H8V12.1513ZM18.5 5.77632C15.0206 5.77632 12.2 8.63051 12.2 12.1513V14.2763H24.8V12.1513C24.8 8.63051 21.9794 5.77632 18.5 5.77632Z" stroke="#3139CE" stroke-width="2"/>
<path fill-rule="evenodd" clip-rule="evenodd" d="M9.75 13.5263C4.91751 13.5263 1 17.7038 1 22.8569V31.1957C1 36.3489 4.91751 40.5263 9.75 40.5263H27.25C32.0825 40.5263 36 36.3489 36 31.1957V22.8569C36 17.7038 32.0825 13.5263 27.25 13.5263H9.75ZM22.073 25.3144C22.073 26.351 21.6224 27.2823 20.9063 27.9232V30.7892C20.9063 32.0779 19.8617 33.1225 18.573 33.1225C17.2843 33.1225 16.2397 32.0779 16.2397 30.7892V27.9232C15.5236 27.2823 15.073 26.351 15.073 25.3144C15.073 23.3814 16.64 21.8144 18.573 21.8144C20.506 21.8144 22.073 23.3814 22.073 25.3144Z" fill="white"/>
<path d="M20.9063 27.9232L20.2394 27.1781C20.0275 27.3678 19.9063 27.6388 19.9063 27.9232H20.9063ZM16.2397 27.9232H17.2397C17.2397 27.6388 17.1185 27.3678 16.9066 27.1781L16.2397 27.9232ZM2 22.8569C2 18.1946 5.52934 14.5263 9.75 14.5263V12.5263C4.30568 12.5263 0 17.213 0 22.8569H2ZM2 31.1957V22.8569H0V31.1957H2ZM9.75 39.5263C5.52934 39.5263 2 35.8581 2 31.1957H0C0 36.8397 4.30568 41.5263 9.75 41.5263V39.5263ZM27.25 39.5263H9.75V41.5263H27.25V39.5263ZM35 31.1957C35 35.8581 31.4707 39.5263 27.25 39.5263V41.5263C32.6943 41.5263 37 36.8397 37 31.1957H35ZM35 22.8569V31.1957H37V22.8569H35ZM27.25 14.5263C31.4707 14.5263 35 18.1946 35 22.8569H37C37 17.213 32.6943 12.5263 27.25 12.5263V14.5263ZM9.75 14.5263H27.25V12.5263H9.75V14.5263ZM21.5732 28.6683C22.4923 27.8458 23.073 26.6473 23.073 25.3144H21.073C21.073 26.0547 20.7525 26.7189 20.2394 27.1781L21.5732 28.6683ZM21.9063 30.7892V27.9232H19.9063V30.7892H21.9063ZM18.573 34.1225C20.4139 34.1225 21.9063 32.6301 21.9063 30.7892H19.9063C19.9063 31.5256 19.3094 32.1225 18.573 32.1225V34.1225ZM15.2397 30.7892C15.2397 32.6301 16.732 34.1225 18.573 34.1225V32.1225C17.8366 32.1225 17.2397 31.5256 17.2397 30.7892H15.2397ZM15.2397 27.9232V30.7892H17.2397V27.9232H15.2397ZM14.073 25.3144C14.073 26.6473 14.6537 27.8458 15.5728 28.6683L16.9066 27.1781C16.3935 26.7189 16.073 26.0547 16.073 25.3144H14.073ZM18.573 20.8144C16.0877 20.8144 14.073 22.8291 14.073 25.3144H16.073C16.073 23.9337 17.1923 22.8144 18.573 22.8144V20.8144ZM23.073 25.3144C23.073 22.8291 21.0583 20.8144 18.573 20.8144V22.8144C19.9537 22.8144 21.073 23.9337 21.073 25.3144H23.073Z" fill="#3139CE"/>
</svg>
