<svg width="18" height="18" viewBox="0 0 18 18" fill="none" xmlns="http://www.w3.org/2000/svg">
<path fill-rule="evenodd" clip-rule="evenodd" d="M9 6.10352e-05C4.02944 6.10352e-05 0 4.0295 0 9.00006C0 13.9706 4.02944 18.0001 9 18.0001C13.9706 18.0001 18 13.9706 18 9.00006C18 4.0295 13.9706 6.10352e-05 9 6.10352e-05ZM11.7666 7.65305L11.4719 9.71047H9.92365V14.6842H7.84726V9.71047H6.16016V7.65305H7.84726V6.08501C7.84726 4.30115 8.83933 3.31573 10.3571 3.31573C11.084 3.31573 11.8444 3.45473 11.8444 3.45473V5.2064H11.0065C10.1811 5.2064 9.92365 5.75506 9.92365 6.31793V7.65305H11.7666Z" fill="#3139CE"/>
</svg>
