<svg width="18" height="18" viewBox="0 0 18 18" fill="none" xmlns="http://www.w3.org/2000/svg">
<path d="M15.6665 9.00002C15.6663 7.51409 15.1698 6.0708 14.2556 4.89935C13.3414 3.72789 12.0621 2.89542 10.6208 2.53413C9.17944 2.17284 7.65871 2.30344 6.30007 2.90519C4.94144 3.50694 3.82278 4.54535 3.12174 5.85551C2.4207 7.16568 2.17747 8.6725 2.43066 10.1367C2.68386 11.6009 3.41897 12.9385 4.51926 13.9372C5.61955 14.9359 7.02195 15.5384 8.50376 15.6489C9.98557 15.7595 11.4619 15.3718 12.6982 14.5475L13.6232 15.9342C12.255 16.8489 10.6456 17.336 8.99984 17.3334C4.39734 17.3334 0.666504 13.6025 0.666504 9.00002C0.666504 4.39752 4.39734 0.666687 8.99984 0.666687C13.6023 0.666687 17.3332 4.39752 17.3332 9.00002V10.25C17.3333 10.874 17.1332 11.4815 16.7625 11.9834C16.3918 12.4853 15.8699 12.855 15.2735 13.0384C14.677 13.2217 14.0375 13.2089 13.4489 13.0019C12.8603 12.7949 12.3536 12.4046 12.0032 11.8884C11.447 12.4667 10.7356 12.8721 9.9546 13.056C9.17356 13.2398 8.35606 13.1942 7.60031 12.9247C6.84455 12.6551 6.1827 12.1731 5.69426 11.5365C5.20582 10.8999 4.91157 10.1359 4.84687 9.3361C4.78217 8.53634 4.94977 7.7349 5.32952 7.02808C5.70928 6.32126 6.28505 5.73912 6.98765 5.3516C7.69024 4.96409 8.48979 4.78768 9.29022 4.84357C10.0906 4.89947 10.8579 5.18528 11.4998 5.66669H13.1665V10.25C13.1665 10.5815 13.2982 10.8995 13.5326 11.1339C13.767 11.3683 14.085 11.5 14.4165 11.5C14.748 11.5 15.066 11.3683 15.3004 11.1339C15.5348 10.8995 15.6665 10.5815 15.6665 10.25V9.00002ZM8.99984 6.50002C8.3368 6.50002 7.70091 6.76341 7.23207 7.23225C6.76323 7.70109 6.49984 8.33698 6.49984 9.00002C6.49984 9.66306 6.76323 10.2989 7.23207 10.7678C7.70091 11.2366 8.3368 11.5 8.99984 11.5C9.66288 11.5 10.2988 11.2366 10.7676 10.7678C11.2364 10.2989 11.4998 9.66306 11.4998 9.00002C11.4998 8.33698 11.2364 7.70109 10.7676 7.23225C10.2988 6.76341 9.66288 6.50002 8.99984 6.50002Z" fill="#E6E6E6"/>
</svg>
