<svg width="20" height="20" viewBox="0 0 20 20" fill="none" xmlns="http://www.w3.org/2000/svg">
<g clip-path="url(#clip0_615_3852)">
<path d="M7.1416 7.6952L10.027 9.8732L12.8557 7.6976L13.4443 8.3028L10.0328 10.9268L6.55885 8.3048L7.1416 7.6952Z" fill="white"/>
<path fill-rule="evenodd" clip-rule="evenodd" d="M10 19C14.9706 19 19 14.9706 19 10C19 5.02944 14.9706 1 10 1C5.02944 1 1 5.02944 1 10C1 14.9706 5.02944 19 10 19ZM14.3682 6.51716C14.2838 6.44214 14.1693 6.4 14.05 6.4H5.95C5.83065 6.4 5.71619 6.44214 5.6318 6.51716C5.54741 6.59217 5.5 6.69391 5.5 6.8V13.2C5.5 13.3061 5.54741 13.4078 5.6318 13.4828C5.71619 13.5579 5.83065 13.6 5.95 13.6H14.05C14.1693 13.6 14.2838 13.5579 14.3682 13.4828C14.4526 13.4078 14.5 13.3061 14.5 13.2V6.8C14.5 6.69391 14.4526 6.59217 14.3682 6.51716Z" fill="white"/>
</g>
<defs>
<clipPath id="clip0_615_3852">
<rect width="20" height="20" fill="white"/>
</clipPath>
</defs>
</svg>
