<svg width="20" height="20" viewBox="0 0 20 20" fill="none" xmlns="http://www.w3.org/2000/svg">
<g clip-path="url(#clip0_1_8388)">
<path d="M9.99951 1.24976C8.17681 1.25192 6.42939 1.97694 5.14054 3.26579C3.8517 4.55463 3.12667 6.30206 3.12451 8.12476C3.12451 14.0073 9.37451 18.4507 9.64062 18.6368C9.74587 18.7103 9.87114 18.7498 9.99951 18.7498C10.1279 18.7498 10.2532 18.7103 10.3584 18.6368C10.6245 18.4507 16.8745 14.0073 16.8745 8.12476C16.8723 6.30206 16.1473 4.55463 14.8585 3.26579C13.5696 1.97694 11.8222 1.25192 9.99951 1.24976ZM9.99997 5.62498C10.4944 5.62498 10.9778 5.77161 11.3889 6.04631C11.8 6.32101 12.1204 6.71146 12.3097 7.16827C12.4989 7.62509 12.5484 8.12776 12.4519 8.61271C12.3555 9.09766 12.1174 9.54312 11.7677 9.89275C11.4181 10.2424 10.9726 10.4805 10.4877 10.5769C10.0027 10.6734 9.50008 10.6239 9.04326 10.4347C8.58645 10.2455 8.196 9.92503 7.9213 9.51391C7.64659 9.10278 7.49997 8.61944 7.49997 8.12498C7.49996 7.79668 7.56462 7.47158 7.69025 7.16826C7.81588 6.86494 8.00003 6.58934 8.23218 6.35719C8.46433 6.12505 8.73993 5.9409 9.04325 5.81526C9.34657 5.68963 9.67166 5.62497 9.99997 5.62498Z" fill="#9B9B9B"/>
</g>
<defs>
<clipPath id="clip0_1_8388">
<rect width="20" height="20" fill="white"/>
</clipPath>
</defs>
</svg>
