<svg width="20" height="20" viewBox="0 0 20 20" fill="none" xmlns="http://www.w3.org/2000/svg">
<path d="M10 19.0002C5.0293 19.0002 1 14.9709 1 10.0002C1 5.02954 5.0293 1.00024 10 1.00024C14.9707 1.00024 19 5.02954 19 10.0002C19 14.9709 14.9707 19.0002 10 19.0002ZM7.201 11.0532L7.2127 11.0469L7.9957 13.6299C8.0965 13.9098 8.2351 13.9602 8.4034 13.9368C8.5726 13.9143 8.6617 13.8234 8.7724 13.7172L9.8416 12.684L12.1366 14.3832C12.556 14.6145 12.8575 14.4948 12.9619 13.9944L14.4532 6.95464C14.6179 6.29944 14.3299 6.03664 13.8214 6.24544L5.0617 9.62944C4.4641 9.86884 4.4677 10.2036 4.9537 10.3521L7.201 11.0532Z" fill="white"/>
</svg>
